<?xml version="1.0" encoding="utf-8"?>
<!-- Generator: Adobe Illustrator 26.0.1, SVG Export Plug-In . SVG Version: 6.00 Build 0)  -->
<svg version="1.1" id="Capa_1" xmlns="http://www.w3.org/2000/svg" xmlns:xlink="http://www.w3.org/1999/xlink" x="0px" y="0px"
	 viewBox="0 0 382.9 382.9" style="enable-background:new 0 0 382.9 382.9;" xml:space="preserve">
<style type="text/css">
	.st0{fill:#FFFFFF;}
	.st1{fill:#009FE3;}
	.st2{fill:#E6007E;}
	.st3{fill:#FFED00;}
</style>
<circle class="st0" cx="191.5" cy="191.5" r="191.5"/>
<g>
	<g>
		<path class="st0" d="M157.3,149.8c-23.6,0-42.8-19.2-42.8-42.8s19.2-42.8,42.8-42.8s42.8,19.2,42.8,42.8S180.9,149.8,157.3,149.8z
			 M157.3,70.3c-20.2,0-36.7,16.4-36.7,36.7s16.4,36.7,36.7,36.7c20.2,0,36.7-16.4,36.7-36.7S177.5,70.3,157.3,70.3z"/>
		<path class="st1" d="M157.3,147.8c-22.5,0-40.8-18.3-40.8-40.8s18.3-40.8,40.8-40.8s40.8,18.3,40.8,40.8S179.8,147.8,157.3,147.8z
			 M157.3,68.3c-21.3,0-38.7,17.3-38.7,38.7s17.3,38.7,38.7,38.7S196,128.3,196,107S178.7,68.3,157.3,68.3z"/>
	</g>
	<g>
		<path class="st0" d="M157.3,160.8c-29.7,0-53.9-24.2-53.9-53.9s24.2-53.9,53.9-53.9s53.9,24.2,53.9,53.9S187,160.8,157.3,160.8z
			 M157.3,63.3c-24.1,0-43.6,19.6-43.6,43.6s19.6,43.6,43.6,43.6S201,131,201,107S181.4,63.3,157.3,63.3z"/>
		<path class="st1" d="M157.3,158.8c-28.6,0-51.9-23.3-51.9-51.9s23.3-51.9,51.9-51.9s51.9,23.3,51.9,51.9S185.9,158.8,157.3,158.8z
			 M157.3,61.3c-25.2,0-45.7,20.5-45.7,45.7s20.5,45.7,45.7,45.7S203,132.1,203,107S182.5,61.3,157.3,61.3z"/>
	</g>
	<g>
		<path class="st0" d="M285.3,253.5c-27.8,0-50.4-22.6-50.4-50.4c0-27.8,22.6-50.4,50.4-50.4s50.4,22.6,50.4,50.4
			C335.8,230.9,313.1,253.5,285.3,253.5z M285.3,158.8c-24.4,0-44.3,19.9-44.3,44.3c0,24.4,19.9,44.3,44.3,44.3s44.3-19.9,44.3-44.3
			C329.6,178.7,309.7,158.8,285.3,158.8z"/>
		<path class="st2" d="M285.3,251.5c-26.7,0-48.4-21.7-48.4-48.4c0-26.7,21.7-48.4,48.4-48.4c26.7,0,48.4,21.7,48.4,48.4
			C333.7,229.8,312,251.5,285.3,251.5z M285.3,156.8c-25.5,0-46.3,20.8-46.3,46.3c0,25.5,20.8,46.3,46.3,46.3
			c25.5,0,46.3-20.8,46.3-46.3C331.6,177.5,310.8,156.8,285.3,156.8z"/>
	</g>
	<g>
		<path class="st0" d="M285.3,265.9c-34.7,0-62.8-28.2-62.8-62.8c0-34.7,28.2-62.8,62.8-62.8s62.8,28.2,62.8,62.8
			C348.2,237.7,320,265.9,285.3,265.9z M285.3,150.5c-29,0-52.6,23.6-52.6,52.6c0,29,23.6,52.6,52.6,52.6s52.6-23.6,52.6-52.6
			C337.9,174.1,314.3,150.5,285.3,150.5z"/>
		<path class="st2" d="M285.3,263.9c-33.5,0-60.8-27.3-60.8-60.8c0-33.5,27.3-60.8,60.8-60.8s60.8,27.3,60.8,60.8
			C346.2,236.6,318.9,263.9,285.3,263.9z M285.3,148.4c-30.1,0-54.6,24.5-54.6,54.6c0,30.1,24.5,54.6,54.6,54.6s54.6-24.5,54.6-54.6
			C339.9,173,315.4,148.4,285.3,148.4z"/>
	</g>
	<g>
		<path class="st0" d="M133.3,316.2c-26.8,0-48.7-21.8-48.7-48.7s21.8-48.7,48.7-48.7c26.8,0,48.7,21.8,48.7,48.7
			S160.2,316.2,133.3,316.2z M133.3,225c-23.4,0-42.5,19.1-42.5,42.5s19.1,42.5,42.5,42.5c23.4,0,42.5-19.1,42.5-42.5
			S156.8,225,133.3,225z"/>
		<path class="st3" d="M133.3,314.2c-25.7,0-46.7-20.9-46.7-46.7s20.9-46.7,46.7-46.7s46.7,20.9,46.7,46.7S159.1,314.2,133.3,314.2z
			 M133.3,223c-24.5,0-44.5,20-44.5,44.5s20,44.5,44.5,44.5c24.5,0,44.5-20,44.5-44.5S157.9,223,133.3,223z"/>
	</g>
	<g>
		<path class="st0" d="M251.4,143.7c-18.7,0-33.9-15.2-33.9-33.9s15.2-33.9,33.9-33.9s33.9,15.2,33.9,33.9S270.1,143.7,251.4,143.7z
			 M251.4,82.5c-15,0-27.2,12.2-27.2,27.2s12.2,27.2,27.2,27.2c15,0,27.2-12.2,27.2-27.2S266.4,82.5,251.4,82.5z"/>
		<path class="st3" d="M251.4,141.7c-17.6,0-31.9-14.3-31.9-31.9s14.3-31.9,31.9-31.9s31.9,14.3,31.9,31.9S269,141.7,251.4,141.7z
			 M251.4,80.5c-16.1,0-29.3,13.1-29.3,29.3s13.1,29.3,29.3,29.3s29.3-13.1,29.3-29.3S267.5,80.5,251.4,80.5z"/>
	</g>
	<g>
		<path class="st0" d="M230.3,318.7c-18.7,0-33.9-15.2-33.9-33.9s15.2-33.9,33.9-33.9s33.9,15.2,33.9,33.9S249,318.7,230.3,318.7z
			 M230.3,257.5c-15,0-27.2,12.2-27.2,27.2s12.2,27.2,27.2,27.2c15,0,27.2-12.2,27.2-27.2S245.3,257.5,230.3,257.5z"/>
		<path class="st1" d="M230.3,316.7c-17.6,0-31.9-14.3-31.9-31.9s14.3-31.9,31.9-31.9s31.9,14.3,31.9,31.9S247.9,316.7,230.3,316.7z
			 M230.3,255.5c-16.1,0-29.3,13.1-29.3,29.3c0,16.1,13.1,29.3,29.3,29.3s29.3-13.1,29.3-29.3C259.5,268.6,246.4,255.5,230.3,255.5z
			"/>
	</g>
	<g>
		<path class="st0" d="M80.5,198c-18.7,0-33.9-15.2-33.9-33.9c0-18.7,15.2-33.9,33.9-33.9s33.9,15.2,33.9,33.9
			C114.5,182.7,99.2,198,80.5,198z M80.5,136.8c-15,0-27.2,12.2-27.2,27.2c0,15,12.2,27.2,27.2,27.2s27.2-12.2,27.2-27.2
			C107.8,149,95.5,136.8,80.5,136.8z"/>
		<path class="st2" d="M80.5,196c-17.6,0-31.9-14.3-31.9-31.9s14.3-31.9,31.9-31.9s31.9,14.3,31.9,31.9S98.1,196,80.5,196z
			 M80.5,134.8c-16.1,0-29.3,13.1-29.3,29.3s13.1,29.3,29.3,29.3s29.3-13.1,29.3-29.3S96.7,134.8,80.5,134.8z"/>
	</g>
	<g>
		<path class="st0" d="M133.3,328.9c-33.8,0-61.4-27.5-61.4-61.4s27.5-61.4,61.4-61.4s61.4,27.5,61.4,61.4S167.2,328.9,133.3,328.9z
			 M133.3,216.4c-28.2,0-51.2,22.9-51.2,51.1s22.9,51.1,51.2,51.1c28.2,0,51.1-22.9,51.1-51.1S161.5,216.4,133.3,216.4z"/>
		<path class="st3" d="M133.3,326.9c-32.7,0-59.4-26.6-59.4-59.4s26.6-59.4,59.4-59.4c32.7,0,59.4,26.6,59.4,59.4
			S166.1,326.9,133.3,326.9z M133.3,214.4c-29.3,0-53.2,23.8-53.2,53.2s23.8,53.2,53.2,53.2c29.3,0,53.2-23.8,53.2-53.2
			S162.7,214.4,133.3,214.4z"/>
	</g>
	<g>
		<g>
			<path class="st0" d="M254.3,210.5c1.5,0,1.5-2.3,0-2.3C252.8,208.2,252.8,210.5,254.3,210.5L254.3,210.5z"/>
		</g>
	</g>
	<g>
		<path class="st0" d="M36.7,190.6c-0.6,0-1.1-0.3-1.5-0.7c-0.3-0.5-0.4-1.1-0.3-1.6l2.4-8.1c0.2-0.8,0.9-1.3,1.7-1.3h7.4
			c0.2,0,0.3,0,0.4,0c0-0.1,0-0.1,0.1-0.2l1.5-5.4h-2.9c-2.6,0-4.3-0.8-5.2-2.4c-0.7-1.4-0.8-3.1-0.3-5.1l4.9-16.6c0,0,0-0.1,0-0.1
			c0.7-2,1.7-3.3,3.2-4c1.2-0.6,2.5-0.8,3.8-0.8h13.7c0.6,0,1.1,0.3,1.5,0.7c0.3,0.5,0.4,1.1,0.3,1.6l-2.3,7.7
			c-0.2,0.8-0.9,1.3-1.7,1.3h-7.6l-1.8,6.3h2.3c1,0,1.9,0.2,2.8,0.5c0.9,0.4,1.7,0.9,2.3,1.6c0.6,0.7,0.9,1.7,1.1,2.8
			c0.1,1,0,2.1-0.4,3.4l-4.9,16.6c-0.4,1.3-1.2,2.4-2.5,3c-1.1,0.6-2.3,0.8-3.4,0.8H36.7z"/>
		<path class="st0" d="M69.6,193.9c-0.4,0-0.8-0.1-1.2-0.4c-0.6-0.5-0.8-1.2-0.6-1.9l0.3-1h-2.7c-1.3,0-2.5-0.2-3.5-0.5
			c-1.2-0.4-2.2-1.1-3-2c-0.8-0.9-1.3-2.1-1.4-3.4c-0.2-1.3,0-2.7,0.5-4.4l10.2-34.8c0.2-0.8,0.9-1.3,1.7-1.3h8.9
			c1,0,1.8,0.8,1.8,1.8c0,0.3-0.1,0.7-0.3,0.9l-9.6,32.8h0.5l10.1-34.3c0.2-0.8,0.9-1.3,1.7-1.3H92c0.6,0,1.1,0.3,1.5,0.7
			c0.3,0.5,0.5,1.1,0.3,1.6l-12.1,41.1c-0.1,0.5-0.5,0.9-0.9,1.1l-10.2,5C70.2,193.9,69.9,193.9,69.6,193.9z"/>
		<path class="st0" d="M82.3,190.6c-0.6,0-1.1-0.3-1.5-0.7c-0.3-0.5-0.5-1.1-0.3-1.6l12.6-42.7c0.2-0.8,0.9-1.3,1.7-1.3h15.9
			c2.7,0,4.6,0.9,5.6,2.6c0.9,1.5,1,3.3,0.5,5.3l-3.8,12.9c-0.3,1.1-1,2.1-2.2,3c-0.1,0.1-0.1,0.1-0.2,0.1c0,0.1,0.1,0.1,0.1,0.2
			c0.3,0.7,0.5,1.5,0.5,2.3c0,0.8-0.1,1.5-0.3,2.2l-3.5,11.8c-0.5,1.7-1.5,3.1-2.8,4.2c-1.4,1.1-3.3,1.6-5.6,1.6H82.3z M96.4,179.8
			C96.5,179.8,96.5,179.8,96.4,179.8c0.1,0,0.1-0.1,0.1-0.2l2.4-8.1h-0.8l-2.4,8.3H96.4z M101.3,162.2c0.2,0,0.3,0,0.3,0
			c0-0.1,0.1-0.1,0.1-0.3l2.1-7.2h-0.8l-2.2,7.5H101.3z"/>
		<path class="st0" d="M107.3,190.6c-0.6,0-1.1-0.3-1.5-0.7c-0.3-0.5-0.5-1.1-0.3-1.6l12.6-42.7c0.2-0.8,0.9-1.3,1.7-1.3h9.5
			c0.6,0,1.1,0.3,1.5,0.7c0.3,0.5,0.5,1.1,0.3,1.6l-9.5,32.3h7.2c0.6,0,1.2,0.3,1.5,0.8c0.3,0.5,0.4,1.1,0.2,1.7l-3.1,8.1
			c-0.3,0.7-0.9,1.2-1.7,1.2H107.3z"/>
		<path class="st0" d="M128.7,190.6c-0.6,0-1.1-0.3-1.5-0.7c-0.3-0.5-0.5-1.1-0.3-1.6l12.6-42.7c0.2-0.8,0.9-1.3,1.7-1.3h9.1
			c0.6,0,1.1,0.3,1.5,0.7c0.3,0.5,0.5,1.1,0.3,1.6l-12.6,42.7c-0.2,0.8-0.9,1.3-1.7,1.3H128.7z"/>
		<path class="st0" d="M161.3,190.6c-0.6,0-1.1-0.3-1.5-0.7c-0.3-0.5-0.5-1.1-0.3-1.6l4-13.7l-3.6,4.9c-0.3,0.5-0.9,0.7-1.5,0.7
			c-0.1,0-0.3,0-0.4-0.1c-0.7-0.2-1.3-0.8-1.4-1.5l-0.7-5.1l-4.7,15.7c-0.2,0.8-0.9,1.3-1.7,1.3h-8.9c-0.6,0-1.1-0.3-1.5-0.7
			s-0.5-1.1-0.3-1.6l12.6-42.7c0.2-0.8,0.9-1.3,1.7-1.3h8.8c0.9,0,1.7,0.7,1.8,1.6l1,9.9l7.2-10.7c0.3-0.5,0.9-0.8,1.5-0.8h9.2
			c0.6,0,1.1,0.3,1.5,0.7c0.3,0.5,0.5,1.1,0.3,1.6L172,189.3c-0.2,0.8-0.9,1.3-1.7,1.3H161.3z"/>
		<path class="st0" d="M189,190.6c-0.5,0-1-0.2-1.4-0.7c-0.3-0.4-0.5-1-0.4-1.5l1-5.6h-2.4l-2.6,6.5c-0.3,0.7-0.9,1.1-1.7,1.1h-9.2
			c-0.6,0-1.2-0.3-1.5-0.8c-0.3-0.5-0.4-1.2-0.1-1.7l18.7-42.7c0.3-0.7,0.9-1.1,1.7-1.1h12.6c0.5,0,1,0.2,1.4,0.6
			c0.3,0.4,0.5,0.9,0.4,1.4l-5.8,42.7c-0.1,0.9-0.9,1.6-1.8,1.6H189z M189.8,172.8l0.1-0.8l-0.3,0.8H189.8z"/>
		<path class="st0" d="M199.8,190.6c-0.6,0-1.1-0.3-1.5-0.7s-0.5-1.1-0.3-1.6l12.6-42.7c0.2-0.8,0.9-1.3,1.7-1.3h16.9
			c2.9,0,4.2,1.3,4.9,2.4c0.8,1.4,1,3.1,0.5,4.8l-9.5,32.2c-0.4,1.4-0.9,2.6-1.6,3.5c-0.7,1-1.6,1.8-2.7,2.3c-1,0.5-2.2,0.8-3.5,1
			c-1.2,0.1-2.5,0.2-4.1,0.2H199.8z M213.6,179.8c0.1,0,0.2,0,0.3,0c0,0,0-0.1,0.1-0.2l7.3-24.9h-0.7l-7.4,25.1H213.6z"/>
		<path class="st0" d="M230.7,190.6c-1,0-1.9-0.2-2.7-0.5c-0.9-0.4-1.7-0.9-2.3-1.7c-0.6-0.7-1-1.6-1.2-2.7c-0.2-1-0.1-2.1,0.3-3.3
			l9.6-32.7c0.4-1.6,1.3-3,2.5-4c1.3-1,2.9-1.5,4.7-1.5h12.8c2.5,0,3.9,1.3,4.6,2.3c0.9,1.4,1.2,3.1,0.7,4.9l-9.8,33.3
			c-0.7,2.3-1.9,3.9-3.7,4.7c-1.5,0.7-3.2,1.1-4.9,1.1H230.7z M238.8,179.8l7.4-25.1l-0.7,0l-7.4,25.1H238.8z"/>
		<path class="st0" d="M250.9,190.6c-0.6,0-1.1-0.3-1.5-0.7c-0.3-0.5-0.4-1.1-0.3-1.6l2.4-8.1c0.2-0.8,0.9-1.3,1.7-1.3h7.4
			c0.2,0,0.3,0,0.4,0c0-0.1,0-0.1,0.1-0.2l1.5-5.4h-2.9c-2.6,0-4.3-0.8-5.2-2.4c-0.7-1.4-0.8-3.1-0.3-5.1l4.9-16.6c0,0,0-0.1,0-0.1
			c0.7-2,1.7-3.3,3.2-4c1.2-0.6,2.5-0.8,3.8-0.8H280c0.6,0,1.1,0.3,1.5,0.7c0.3,0.5,0.4,1.1,0.3,1.6l-2.3,7.7
			c-0.2,0.8-0.9,1.3-1.7,1.3h-7.6l-1.8,6.3h2.3c1,0,1.9,0.2,2.8,0.5c0.9,0.4,1.7,0.9,2.3,1.6c0.6,0.7,0.9,1.7,1.1,2.8
			c0.1,1,0,2.1-0.4,3.4l-4.9,16.6c-0.4,1.3-1.2,2.4-2.5,3c-1.1,0.6-2.3,0.8-3.4,0.8H250.9z"/>
		<path class="st0" d="M279.1,190.6c-0.6,0-1.1-0.3-1.5-0.7c-0.3-0.5-0.5-1.1-0.3-1.6l12.6-42.7c0.2-0.8,0.9-1.3,1.7-1.3h16.9
			c2.9,0,4.2,1.3,4.9,2.4c0.8,1.4,1,3.1,0.5,4.8l-9.5,32.2c-0.4,1.4-0.9,2.6-1.6,3.5c-0.7,1-1.6,1.8-2.7,2.3c-1,0.5-2.2,0.8-3.5,1
			c-1.2,0.1-2.5,0.2-4.1,0.2H279.1z M292.8,179.8c0.1,0,0.2,0,0.3,0c0,0,0-0.1,0.1-0.2l7.3-24.9h-0.7l-7.4,25.1H292.8z"/>
		<path class="st0" d="M304,190.6c-0.6,0-1.1-0.3-1.5-0.7c-0.3-0.5-0.5-1.1-0.3-1.6l12.6-42.7c0.2-0.8,0.9-1.3,1.7-1.3h16.8
			c0.6,0,1.1,0.3,1.5,0.7c0.3,0.5,0.4,1.1,0.3,1.6l-2.3,7.7c-0.2,0.8-0.9,1.3-1.7,1.3h-6.5l-1.7,5.8h5.3c0.6,0,1.1,0.3,1.5,0.7
			s0.5,1.1,0.3,1.6l-2.2,7.6c-0.2,0.8-0.9,1.3-1.7,1.3h-6.3l-1.9,6.3h5.7c0.6,0,1.2,0.3,1.5,0.8c0.3,0.5,0.4,1.1,0.2,1.7l-2.9,8.1
			c-0.3,0.7-0.9,1.2-1.7,1.2H304z"/>
		<path d="M55.7,153.7c-0.3,0-0.6,0.1-0.9,0.3c-0.3,0.2-0.5,0.5-0.7,1l-2.5,8.7h4.8c0.8,0,1.5,0.1,2.1,0.4c0.6,0.2,1.1,0.6,1.5,1.1
			c0.4,0.5,0.6,1.1,0.7,1.8c0.1,0.7,0,1.6-0.4,2.7l-4.9,16.6c-0.2,0.9-0.8,1.5-1.6,1.9c-0.8,0.4-1.7,0.6-2.6,0.6H36.7l2.4-8.1h7.4
			c0.8,0,1.4-0.1,1.6-0.3c0.2-0.2,0.5-0.6,0.6-1.1l2.1-7.2c0.1-0.2,0.1-0.3,0.1-0.4c0-0.1-0.2-0.1-0.5-0.1h-4.7
			c-1.9,0-3.1-0.5-3.6-1.4c-0.5-0.9-0.5-2.2-0.1-3.8l4.9-16.6c0.5-1.5,1.2-2.5,2.2-2.9c1-0.5,2-0.7,3-0.7h13.7l-2.3,7.7H55.7z"/>
		<path d="M78.9,146l-9.9,33.8c-0.2,0.7-0.2,1.1,0.1,1.4c0.3,0.3,0.7,0.4,1.4,0.4h2.3L83.2,146H92l-12.1,41.1l-10.2,5l1-3.4h-5.1
			c-1.1,0-2.1-0.1-3-0.4c-0.9-0.3-1.6-0.8-2.1-1.4c-0.5-0.6-0.9-1.5-1-2.5c-0.1-1,0-2.2,0.4-3.6L70.1,146H78.9L78.9,146z"/>
		<path d="M94.9,146h15.9c2,0,3.4,0.5,4,1.6c0.6,1.1,0.7,2.4,0.3,3.9l-3.8,12.9c-0.2,0.7-0.7,1.4-1.5,2.1c-0.8,0.6-2,0.9-3.5,0.9
			c0.7,0,1.4,0.2,1.8,0.5c0.5,0.3,0.8,0.7,1,1.2c0.2,0.5,0.3,1,0.3,1.6c0,0.6-0.1,1.2-0.2,1.7l-3.5,11.8c-0.4,1.4-1.2,2.5-2.2,3.3
			c-1,0.8-2.5,1.2-4.5,1.2H82.3L94.9,146z M96.4,181.7c0.4,0,0.8-0.1,1.1-0.2c0.3-0.2,0.6-0.6,0.8-1.2l2.5-8.6c0.2-0.5,0.2-1,0-1.4
			c-0.2-0.4-0.6-0.5-1.2-0.5h-2.8l-3.5,11.9H96.4z M101.3,164c0.6,0,1-0.1,1.4-0.3c0.3-0.2,0.6-0.6,0.8-1.3l2.3-7.8
			c0.2-0.5,0.2-1,0.1-1.3c-0.2-0.3-0.6-0.5-1.2-0.5h-2.9L98.4,164H101.3z"/>
		<path d="M119.8,146h9.5l-10.2,34.6h9.6l-3.1,8.1h-18.5L119.8,146z"/>
		<path d="M137.8,188.8h-9.1l12.6-42.7h9.1L137.8,188.8z"/>
		<path d="M156.7,165l-7.1,23.7h-8.9l12.6-42.7h8.8l1.5,14.9l10-14.9h9.2l-12.6,42.7h-8.9l7-23.7l-9.8,13.3L156.7,165z"/>
		<path d="M172.3,188.8L191,146h12.6l-5.8,42.7H189l1.4-7.7h-5.8l-3.1,7.7H172.3z M194.7,155.3l-7.8,19.3h4.4L194.7,155.3z"/>
		<path d="M212.4,146h16.9c1.6,0,2.7,0.5,3.3,1.5c0.6,1,0.7,2.1,0.4,3.3l-9.5,32.1c-0.4,1.3-0.8,2.3-1.3,3s-1.2,1.4-2,1.8
			c-0.8,0.4-1.8,0.7-2.9,0.8c-1.1,0.1-2.4,0.2-3.9,0.2h-13.6L212.4,146z M219.2,152.9l-8.5,28.7h2.8c0.7,0,1.2-0.1,1.5-0.4
			c0.3-0.2,0.5-0.6,0.6-1.1l7.5-25.4c0.2-0.6,0.2-1.1,0.1-1.4c-0.1-0.3-0.5-0.5-1.2-0.5H219.2z"/>
		<path d="M254.4,146c1.4,0,2.4,0.5,3,1.5c0.6,1,0.8,2.1,0.4,3.4l-9.8,33.3c-0.5,1.8-1.5,3-2.7,3.6c-1.3,0.6-2.7,0.9-4.1,0.9h-10.5
			c-0.7,0-1.4-0.1-2.1-0.4c-0.6-0.3-1.1-0.6-1.6-1.1c-0.4-0.5-0.7-1.1-0.8-1.9c-0.1-0.7-0.1-1.5,0.2-2.4l9.6-32.7
			c0.3-1.3,0.9-2.3,1.9-3c1-0.8,2.2-1.1,3.6-1.1H254.4z M245.2,152.9c-0.4,0-0.7,0.1-0.9,0.3c-0.2,0.2-0.3,0.5-0.4,0.8l-7.9,26.6
			c-0.2,0.7,0.1,1.1,0.8,1.1h2.3c0.7,0,1.2-0.4,1.4-1.1l7.8-26.6c0.2-0.7-0.1-1.1-0.9-1.1H245.2z"/>
		<path d="M269.9,153.7c-0.3,0-0.6,0.1-0.9,0.3c-0.3,0.2-0.5,0.5-0.7,1l-2.5,8.7h4.8c0.8,0,1.5,0.1,2.1,0.4c0.6,0.2,1.1,0.6,1.5,1.1
			c0.4,0.5,0.6,1.1,0.7,1.8c0.1,0.7,0,1.6-0.4,2.7l-4.9,16.6c-0.2,0.9-0.8,1.5-1.6,1.9c-0.8,0.4-1.7,0.6-2.6,0.6h-14.5l2.4-8.1h7.4
			c0.8,0,1.4-0.1,1.6-0.3c0.2-0.2,0.5-0.6,0.6-1.1l2.1-7.2c0.1-0.2,0.1-0.3,0.1-0.4c0-0.1-0.2-0.1-0.5-0.1h-4.7
			c-1.9,0-3.1-0.5-3.6-1.4c-0.5-0.9-0.5-2.2-0.1-3.8l4.9-16.6c0.5-1.5,1.2-2.5,2.2-2.9c1-0.5,2-0.7,3-0.7H280l-2.3,7.7H269.9z"/>
		<path d="M291.6,146h16.9c1.6,0,2.7,0.5,3.3,1.5c0.6,1,0.7,2.1,0.4,3.3l-9.5,32.1c-0.4,1.3-0.8,2.3-1.3,3s-1.2,1.4-2,1.8
			c-0.8,0.4-1.8,0.7-2.9,0.8s-2.4,0.2-3.9,0.2h-13.6L291.6,146z M298.5,152.9l-8.5,28.7h2.8c0.7,0,1.2-0.1,1.5-0.4
			c0.3-0.2,0.5-0.6,0.6-1.1l7.5-25.4c0.2-0.6,0.2-1.1,0.1-1.4c-0.1-0.3-0.5-0.5-1.2-0.5H298.5z"/>
		<path d="M316.6,146h16.8l-2.3,7.7h-7.9l-2.8,9.4h7.7l-2.2,7.6h-7.7l-2.9,9.9h8.2l-2.9,8.1H304L316.6,146z"/>
	</g>
	<g>
		<g>
			<path class="st0" d="M96.2,244.2c-1.2,0-2.4-0.2-3.4-0.5c-1.2-0.4-2.1-1-2.9-1.9c-0.8-0.9-1.3-2-1.6-3.3
				c-0.2-1.3-0.1-2.7,0.4-4.4l9.1-30.9c0.6-2.1,1.6-3.5,2.9-4.3c1.2-0.7,2.7-1,4.5-1h16.4c0.6,0,1.1,0.3,1.5,0.7
				c0.3,0.5,0.5,1.1,0.3,1.6l-3.8,13c-0.2,0.6-0.7,1.1-1.3,1.3l-8.6,2c-0.1,0-0.3,0-0.4,0c-0.5,0-1-0.2-1.3-0.6
				c-0.4-0.5-0.6-1.1-0.4-1.8l1.7-5.8h-0.4l-7.1,24.1h9.2c0.6,0,1.2,0.3,1.5,0.8c0.3,0.5,0.4,1.1,0.2,1.7l-3.2,8.1
				c-0.3,0.7-0.9,1.2-1.7,1.2H96.2z"/>
			<path class="st0" d="M117.8,244.2c-1,0-1.9-0.2-2.7-0.5c-0.9-0.4-1.7-0.9-2.3-1.7c-0.6-0.7-1-1.6-1.2-2.7c-0.2-1-0.1-2.1,0.3-3.3
				l9.6-32.7c0.4-1.6,1.3-3,2.5-4c1.3-1,2.9-1.5,4.7-1.5h12.8c2.5,0,3.9,1.3,4.6,2.3c0.9,1.4,1.2,3.1,0.7,4.9l-9.8,33.3
				c-0.7,2.3-1.9,3.9-3.7,4.7c-1.5,0.7-3.2,1.1-4.9,1.1H117.8z M126,233.5l7.4-25.1l-0.7,0l-7.4,25.1H126z"/>
			<path class="st0" d="M136.8,244.2c-0.6,0-1.1-0.3-1.5-0.7s-0.5-1.1-0.3-1.6l12.6-42.7c0.2-0.8,0.9-1.3,1.7-1.3h9.5
				c0.6,0,1.1,0.3,1.5,0.7c0.3,0.5,0.5,1.1,0.3,1.6l-9.5,32.3h7.2c0.6,0,1.2,0.3,1.5,0.8c0.3,0.5,0.4,1.1,0.2,1.7L157,243
				c-0.3,0.7-0.9,1.2-1.7,1.2H136.8z"/>
			<path class="st0" d="M163.9,244.2c-1,0-1.9-0.2-2.7-0.5c-0.9-0.4-1.7-0.9-2.3-1.7c-0.6-0.7-1-1.6-1.2-2.7c-0.2-1-0.1-2.1,0.3-3.3
				l9.6-32.7c0.4-1.6,1.3-3,2.5-4c1.3-1,2.9-1.5,4.7-1.5h12.8c2.5,0,3.9,1.3,4.6,2.3c0.9,1.4,1.2,3.1,0.7,4.9l-9.8,33.3
				c-0.7,2.3-1.9,3.9-3.7,4.7c-1.5,0.7-3.2,1.1-4.9,1.1H163.9z M172,233.5l7.4-25.1l-0.7,0l-7.4,25.1H172z"/>
			<path class="st0" d="M203.5,244.2c-0.6,0-1.1-0.3-1.5-0.7c-0.3-0.5-0.5-1.1-0.3-1.6l4-13.7l-3.6,4.9c-0.3,0.5-0.9,0.7-1.5,0.7
				c-0.1,0-0.3,0-0.4-0.1c-0.7-0.2-1.3-0.8-1.4-1.5l-0.7-5.1l-4.7,15.7c-0.2,0.8-0.9,1.3-1.7,1.3h-8.9c-0.6,0-1.1-0.3-1.5-0.7
				s-0.5-1.1-0.3-1.6l12.6-42.7c0.2-0.8,0.9-1.3,1.7-1.3h8.8c0.9,0,1.7,0.7,1.8,1.6l1,9.9l7.2-10.7c0.3-0.5,0.9-0.8,1.5-0.8h9.2
				c0.6,0,1.1,0.3,1.5,0.7c0.3,0.5,0.5,1.1,0.3,1.6l-12.6,42.7c-0.2,0.8-0.9,1.3-1.7,1.3H203.5z"/>
			<path class="st0" d="M215.3,244.2c-0.6,0-1.1-0.3-1.5-0.7c-0.3-0.5-0.5-1.1-0.3-1.6l12.6-42.7c0.2-0.8,0.9-1.3,1.7-1.3h15.9
				c2.7,0,4.6,0.9,5.6,2.6c0.9,1.5,1,3.3,0.5,5.3l-3.8,12.9c-0.3,1.1-1,2.1-2.2,3c-0.1,0.1-0.1,0.1-0.2,0.1c0,0.1,0.1,0.1,0.1,0.2
				c0.3,0.7,0.5,1.5,0.5,2.3c0,0.8-0.1,1.5-0.3,2.2l-3.5,11.8c-0.5,1.7-1.5,3.1-2.8,4.2c-1.4,1.1-3.3,1.6-5.6,1.6H215.3z
				 M229.4,233.5C229.4,233.5,229.4,233.5,229.4,233.5c0.1,0,0.1-0.1,0.1-0.2l2.4-8.1h-0.8l-2.5,8.3H229.4z M234.3,215.8
				c0.2,0,0.3,0,0.3,0c0-0.1,0.1-0.1,0.1-0.3l2.1-7.2H236l-2.2,7.5H234.3z"/>
			<path class="st0" d="M240.2,244.2c-0.6,0-1.1-0.3-1.5-0.7c-0.3-0.5-0.5-1.1-0.3-1.6l12.6-42.7c0.2-0.8,0.9-1.3,1.7-1.3h9.1
				c0.6,0,1.1,0.3,1.5,0.7c0.3,0.5,0.5,1.1,0.3,1.6L251,242.9c-0.2,0.8-0.9,1.3-1.7,1.3H240.2z"/>
			<path class="st0" d="M268.1,244.2c-0.5,0-1-0.2-1.4-0.7c-0.3-0.4-0.5-1-0.4-1.5l1-5.6h-2.4l-2.6,6.5c-0.3,0.7-0.9,1.1-1.7,1.1
				h-9.2c-0.6,0-1.2-0.3-1.5-0.8c-0.3-0.5-0.4-1.2-0.1-1.7l18.7-42.7c0.3-0.7,0.9-1.1,1.7-1.1h12.6c0.5,0,1,0.2,1.4,0.6
				c0.3,0.4,0.5,0.9,0.4,1.4l-5.8,42.7c-0.1,0.9-0.9,1.6-1.8,1.6H268.1z M268.9,226.5l0.1-0.8l-0.3,0.8H268.9z"/>
			<path d="M117.9,212.7l-8.6,2l2.4-8.1h-2.9c-0.5,0-0.8,0.1-1.1,0.2c-0.2,0.2-0.4,0.5-0.6,1.1l-7.2,24.6c-0.4,1.3,0,1.9,1.3,1.9
				h9.8l-3.2,8.1H96.2c-1,0-2-0.1-2.8-0.4c-0.9-0.3-1.6-0.8-2.1-1.4c-0.6-0.6-0.9-1.4-1.1-2.4c-0.2-1,0-2.2,0.4-3.6l9.1-30.9
				c0.5-1.6,1.2-2.7,2.1-3.2c0.9-0.5,2.1-0.8,3.6-0.8h16.4L117.9,212.7z"/>
			<path d="M141.6,199.7c1.4,0,2.4,0.5,3,1.5c0.6,1,0.8,2.1,0.4,3.4l-9.8,33.3c-0.5,1.8-1.5,3-2.7,3.6c-1.3,0.6-2.7,0.9-4.1,0.9
				h-10.5c-0.7,0-1.4-0.1-2.1-0.4c-0.6-0.3-1.1-0.6-1.6-1.1c-0.4-0.5-0.7-1.1-0.8-1.9c-0.1-0.7-0.1-1.5,0.2-2.4l9.6-32.7
				c0.3-1.3,0.9-2.3,1.9-3c1-0.8,2.2-1.1,3.6-1.1H141.6z M132.3,206.5c-0.4,0-0.7,0.1-0.9,0.3c-0.2,0.2-0.3,0.5-0.4,0.8l-7.9,26.6
				c-0.2,0.7,0.1,1.1,0.8,1.1h2.3c0.7,0,1.2-0.4,1.4-1.1l7.8-26.6c0.2-0.7-0.1-1.1-0.9-1.1H132.3z"/>
			<path d="M149.4,199.7h9.5l-10.2,34.6h9.6l-3.1,8.1h-18.5L149.4,199.7z"/>
			<path d="M187.6,199.7c1.4,0,2.4,0.5,3,1.5c0.6,1,0.8,2.1,0.4,3.4l-9.8,33.3c-0.5,1.8-1.5,3-2.7,3.6c-1.3,0.6-2.7,0.9-4.1,0.9
				h-10.5c-0.7,0-1.4-0.1-2.1-0.4c-0.6-0.3-1.1-0.6-1.6-1.1c-0.4-0.5-0.7-1.1-0.8-1.9c-0.1-0.7-0.1-1.5,0.2-2.4l9.6-32.7
				c0.3-1.3,0.9-2.3,1.9-3c1-0.8,2.2-1.1,3.6-1.1H187.6z M178.4,206.5c-0.4,0-0.7,0.1-0.9,0.3c-0.2,0.2-0.3,0.5-0.4,0.8l-7.9,26.6
				c-0.2,0.7,0.1,1.1,0.8,1.1h2.3c0.7,0,1.2-0.4,1.4-1.1l7.8-26.6c0.2-0.7-0.1-1.1-0.9-1.1H178.4z"/>
			<path d="M198.8,218.6l-7.1,23.7h-8.9l12.6-42.7h8.8l1.5,14.9l10-14.9h9.2l-12.6,42.7h-8.9l7-23.7l-9.8,13.3L198.8,218.6z"/>
			<path d="M227.8,199.7h15.9c2,0,3.4,0.5,4,1.6c0.6,1.1,0.7,2.4,0.3,3.9l-3.8,12.9c-0.2,0.7-0.7,1.4-1.5,2.1
				c-0.8,0.6-2,0.9-3.5,0.9c0.7,0,1.4,0.2,1.8,0.5c0.5,0.3,0.8,0.7,1,1.2c0.2,0.5,0.3,1,0.3,1.6s-0.1,1.2-0.2,1.7l-3.5,11.8
				c-0.4,1.4-1.2,2.5-2.2,3.3c-1,0.8-2.5,1.2-4.5,1.2h-16.8L227.8,199.7z M229.4,235.3c0.4,0,0.8-0.1,1.1-0.2
				c0.3-0.2,0.6-0.6,0.8-1.2l2.5-8.6c0.2-0.5,0.2-1,0-1.4c-0.2-0.4-0.6-0.5-1.2-0.5h-2.8l-3.5,11.9H229.4z M234.3,217.6
				c0.6,0,1-0.1,1.4-0.3c0.3-0.2,0.6-0.6,0.8-1.3l2.3-7.8c0.2-0.5,0.2-1,0.1-1.3c-0.2-0.3-0.6-0.5-1.2-0.5h-2.9l-3.3,11.1H234.3z"/>
			<path d="M249.3,242.4h-9.1l12.6-42.7h9.1L249.3,242.4z"/>
			<path d="M251.4,242.4l18.7-42.7h12.6l-5.8,42.7h-8.8l1.4-7.7h-5.8l-3.1,7.7H251.4z M273.8,208.9l-7.8,19.3h4.4L273.8,208.9z"/>
		</g>
	</g>
</g>
</svg>
